# xmcd
#
# Track frame offsets: 
#        150
#        41818
#        65051
#        87046
#        116546
#        143610
#        162780
#        182825
#        252596
#
# Disc length: 3689 seconds
#
# Revision: 0
# Processed by: cddbd v1.5.2PL0 Copyright (c) Steve Scherf et al.
# Submitted via: ExactAudioCopy v1.3
#
DISCID=7a0e6709
DTITLE=Todd Wolfe - Why Thank You Very Much
DYEAR=2003
DGENRE=Blues Rock
TTITLE0=Wolfe Cissy Strut
TTITLE1=Heaven
TTITLE2=Woke Up This Morning
TTITLE3=Got To Get Better In A Little While
TTITLE4=Need Your Love So Bad
TTITLE5=Forty Four
TTITLE6=The Great Liberator
TTITLE7=Shame
TTITLE8=Who's That Coming
EXTD=
EXTT0=
EXTT1=
EXTT2=
EXTT3=
EXTT4=
EXTT5=
EXTT6=
EXTT7=
EXTT8=
PLAYORDER=
